<svg class="svg-icon" style="width: 1em; height: 1em;vertical-align: middle;fill: currentColor;overflow: hidden;" viewBox="0 0 1024 1024" version="1.1" xmlns="http://www.w3.org/2000/svg">
                <path d="M512 16C238.066 16 16 238.066 16 512s222.066 496 496 496 496-222.066 496-496S785.934 16 512 16z m234.268 693.506c-3.184 3.734-79.552 91.462-219.702 91.462-169.384 0-288.968-126.52-288.968-291.134 0-162.606 124.008-286.802 287.524-286.802 133.914 0 203.93 74.63 206.844 77.808a24 24 0 0 1 2.476 29.246l-44.76 69.31c-8.098 12.534-25.548 14.702-36.468 4.59-0.466-0.428-53.058-47.76-123.76-47.76-92.232 0-147.832 67.15-147.832 152.164 0 79.204 51.028 159.384 148.554 159.384 77.394 0 130.56-56.676 131.088-57.25 10.264-11.13 28.118-10.066 37.016 2.106l49.094 67.144a24.002 24.002 0 0 1-1.106 29.732z" fill="" />
            </svg>